# xmcd
#
# Track frame offsets: 
#        150
#        18689
#        33643
#        51727
#        73098
#
# Disc length: 1098 seconds
#
# Revision: 0
# Processed by: cddbd v1.5.1PL0 Copyright (c) Steve Scherf et al.
# Submitted via: ExactAudioCopy v0.95a5
#
DISCID=4c044805
DTITLE=Bond Street Bkues Band - Chickenshack Boogie Nights
DYEAR=1994
DGENRE=Blues
TTITLE0=Grandma's Joint
TTITLE1=300 Pounds (of Heavenly Joy)
TTITLE2=Little Boy Blue
TTITLE3=Shake It, Babe
TTITLE4=Everybody Goes When the Wagons Come
EXTD=
EXTT0=
EXTT1=
EXTT2=
EXTT3=
EXTT4=
PLAYORDER=
